<svg xmlns="http://www.w3.org/2000/svg" viewBox="0 0 512 512" width="512" height="512">
  
  <defs>
    <clipPath id="card1">
      <rect x="16" y="16" width="480" height="480" rx="96" ry="96"></rect>
    </clipPath>
  </defs>
  <rect x="16" y="16" width="480" height="480" rx="96" ry="96" fill="#F4E04D"></rect>
  <g clip-path="url(#card1)">
    
    <g fill="#587B7F">
      <rect x="120" y="120" width="56" height="272"></rect>
      
      <polygon points="176,256 320,120 388,120 232,256"></polygon>
      
      <polygon points="176,256 232,256 388,392 320,392"></polygon>
    </g>
    
    <g transform="translate(372 372)">
      <circle r="92" fill="#FFFDF2" stroke="#587B7F" stroke-width="10"></circle>
      <circle r="78" fill="none" stroke="#587B7F" stroke-width="4"></circle>
      
      <g stroke="#587B7F" stroke-width="6" stroke-linecap="round">
        <line x1="0" y1="-72" x2="0" y2="-12"></line>
        <line x1="0" y1="72" x2="0" y2="12"></line>
        <line x1="-72" y1="0" x2="-12" y2="0"></line>
        <line x1="72" y1="0" x2="12" y2="0"></line>
        <line x1="-51" y1="-51" x2="-9" y2="-9"></line>
        <line x1="51" y1="-51" x2="9" y2="-9"></line>
        <line x1="-51" y1="51" x2="-9" y2="9"></line>
        <line x1="51" y1="51" x2="9" y2="9"></line>
      </g>
      <circle r="10" fill="#587B7F"></circle>
    </g>
  </g>
</svg>